<svg version="1.1" id="Layer_1" xmlns="http://www.w3.org/2000/svg" xmlns:xlink="http://www.w3.org/1999/xlink" x="0px" y="0px"
	 width="100%" viewBox="0 0 512 512" enable-background="new 0 0 512 512" xml:space="preserve">
<path fill="#000000" opacity="1.000000" stroke="none" 
	d="
M241.000000,1.000000 
	C331.619781,1.000000 422.239532,1.000000 512.929688,1.000000 
	C512.929688,171.666656 512.929688,342.333313 512.929688,513.000000 
	C492.582977,513.000000 472.260162,513.000000 451.468018,512.531372 
	C451.248383,492.779968 451.544189,473.492310 444.916077,454.580017 
	C442.649231,449.380310 440.337677,444.552979 438.036377,439.544373 
	C438.046631,439.363159 437.957581,439.011169 437.937073,438.724487 
	C437.616333,438.211609 437.316132,437.985443 436.862305,437.463043 
	C427.016327,420.972137 415.960754,405.959259 400.358826,394.824127 
	C395.944550,391.673584 392.029724,387.632721 387.274017,385.192596 
	C378.620392,380.752441 369.695587,376.677979 360.536682,373.430267 
	C350.996002,370.047089 341.535797,365.785675 330.719269,365.911194 
	C326.193085,362.945374 321.741974,362.043274 316.479553,364.011475 
	C312.088013,364.000793 308.156189,364.000793 303.829224,364.000793 
	C303.829224,357.619324 303.829224,351.820160 303.905670,345.560913 
	C304.028015,340.755371 304.073883,336.409821 304.488525,332.049286 
	C311.771301,327.926178 319.187988,324.458557 325.462128,319.535004 
	C332.115601,314.313782 337.683929,307.709717 343.844543,302.151123 
	C345.475616,310.364471 343.676270,319.018433 350.232483,325.477081 
	C351.013306,326.246307 350.990936,327.945343 351.122314,329.235626 
	C351.396759,331.930511 352.115509,334.812408 355.362518,333.724243 
	C356.941772,333.195007 358.864899,329.999481 358.585602,328.359619 
	C357.938507,324.560913 355.980438,320.997192 354.681183,317.293549 
	C353.896210,315.055939 353.349396,312.734802 352.544556,309.923798 
	C358.381226,311.051819 362.857483,312.272705 367.398682,312.604187 
	C369.017517,312.722382 370.793732,310.684326 372.498077,309.630493 
	C371.400299,308.363525 370.540405,306.643463 369.158386,305.917969 
	C365.595856,304.047729 361.802368,302.617432 358.627960,301.239990 
	C361.870453,297.571655 364.964233,294.228516 367.877197,290.734619 
	C371.213654,286.732880 373.839996,284.256256 379.178558,287.710236 
	C380.614288,288.639130 383.288361,287.654053 385.393982,287.547546 
	C384.702545,285.400970 384.110474,283.213806 383.260803,281.131805 
	C382.996094,280.483063 382.034668,280.118622 381.332825,279.578369 
	C385.147552,277.499939 385.593262,276.340118 384.559906,271.522797 
	C382.385010,261.383698 385.443237,258.262756 395.316864,260.863922 
	C396.964630,261.298004 398.421295,262.838593 399.718506,264.118927 
	C401.113708,265.495941 402.046844,267.364746 403.512878,268.637299 
	C404.365448,269.377350 406.091614,269.915588 407.015228,269.539368 
	C407.910309,269.174744 408.694305,267.565704 408.810150,266.430084 
	C409.280396,261.819519 407.536743,258.141602 403.943359,255.092728 
	C402.396454,253.780212 400.394226,251.477310 400.620148,249.917038 
	C401.104980,246.568817 402.903015,243.410751 404.389282,239.594894 
	C405.382355,240.912277 405.662750,241.648621 406.180573,241.904556 
	C407.914551,242.761627 410.246948,244.490097 411.387024,243.928757 
	C412.749451,243.257950 413.932190,240.473877 413.727844,238.782089 
	C413.427216,236.292999 412.003754,233.864273 410.740631,231.586121 
	C409.232452,228.866043 407.388824,226.331924 405.690521,223.717239 
	C405.987579,223.375168 406.284668,223.033112 406.581726,222.691040 
	C407.908234,223.087784 409.295593,223.347519 410.550812,223.904831 
	C416.193542,226.410141 416.339630,231.692200 417.284637,236.768051 
	C417.628479,238.614731 419.626953,240.153351 420.870514,241.832520 
	C422.191650,240.221344 424.390106,238.751785 424.677124,236.973663 
	C425.736389,230.411530 424.734406,224.172943 420.281403,218.748764 
	C417.621033,215.508194 415.386780,211.917786 412.442139,207.750336 
	C417.146820,207.050003 421.102325,206.854980 424.786804,205.753525 
	C426.753662,205.165543 428.252655,203.012573 429.962830,201.565918 
	C428.360016,199.974564 427.029327,197.780304 425.101044,196.909851 
	C420.180817,194.688828 414.817566,193.294022 412.498505,187.331223 
	C416.462952,186.295441 422.245880,188.658661 423.166229,182.669891 
	C423.477173,180.646652 420.628876,178.137939 418.928772,175.369766 
	C419.020660,174.398407 420.149597,171.487442 419.213043,170.460922 
	C417.339081,168.406952 414.334351,167.384705 411.247772,165.623367 
	C412.590179,164.243805 414.217133,162.485596 415.937042,160.823547 
	C418.882812,157.976883 422.026855,155.317841 424.775238,152.295914 
	C425.536499,151.458862 425.804718,149.185471 425.208374,148.345520 
	C424.418396,147.232773 422.600250,146.482849 421.142456,146.323776 
	C419.904114,146.188644 418.550201,147.112396 416.495697,147.830322 
	C417.694031,143.725861 419.347900,140.309143 419.486542,136.831985 
	C419.586639,134.322052 418.327271,130.352692 416.507690,129.487473 
	C413.472595,128.044296 411.666626,131.352463 410.702545,134.079376 
	C409.788879,136.663681 409.241455,139.377472 408.532959,142.034332 
	C407.979279,142.141769 407.425598,142.249207 406.871918,142.356659 
	C406.534729,141.155853 405.602356,139.723862 405.963440,138.794296 
	C407.518372,134.791321 409.529480,130.968781 411.231537,127.018951 
	C413.957306,120.693535 413.254639,119.023071 407.872986,116.813873 
	C409.273773,110.090950 410.801636,103.571632 411.936035,96.984558 
	C412.541443,93.469421 411.012329,90.442741 407.114258,90.543121 
	C403.492340,90.636398 403.256561,93.885559 403.041656,96.843391 
	C402.778839,100.461807 402.631104,104.166138 401.706879,107.639992 
	C400.456055,112.341400 397.307037,113.677971 392.976532,111.615021 
	C395.325226,107.670410 397.943054,103.896851 399.826538,99.786758 
	C400.525665,98.261116 400.171997,95.291626 399.078583,94.174217 
	C397.967682,93.038933 395.360931,93.282112 393.392822,93.111069 
	C392.557159,93.038445 391.679504,93.448524 390.052795,93.809845 
	C390.993011,88.846603 391.792358,84.533722 392.629791,80.228249 
	C393.904999,73.672195 391.587158,69.006187 385.765839,67.268227 
	C386.391632,62.973202 386.959534,58.584167 387.692383,54.222847 
	C388.162628,51.424408 388.408722,48.488724 385.237122,47.466114 
	C381.785339,46.353153 379.940979,48.950939 379.166382,51.830345 
	C378.230164,55.310642 377.626221,58.910660 377.230469,62.497700 
	C376.815308,66.260162 374.406281,67.346397 371.343719,66.953110 
	C367.944458,66.516586 368.715271,63.781403 369.092316,61.462002 
	C369.672180,57.894958 370.763763,54.297279 370.585175,50.765827 
	C370.486847,48.821045 368.465729,45.722092 366.896515,45.438366 
	C365.163086,45.124928 362.955048,47.436424 360.926941,48.620251 
	C358.143463,49.242096 355.047028,49.933849 351.563568,50.712067 
	C352.002899,46.798744 352.778809,42.784241 352.812622,38.763493 
	C352.845734,34.826962 354.008270,29.554064 348.547546,28.405849 
	C342.966095,27.232265 342.491852,32.765732 340.607880,36.223598 
	C339.640533,37.999153 338.486572,39.673058 336.922913,42.187302 
	C335.711792,37.129345 334.576355,33.639759 334.101227,30.062468 
	C333.593079,26.236824 332.359344,21.628254 338.643890,21.419258 
	C339.287537,17.407997 338.952118,14.379541 334.129181,14.147130 
	C329.017029,13.900781 326.296387,15.994569 326.095673,20.690052 
	C325.971649,23.591110 326.072693,26.501791 326.072693,29.047665 
	C322.562012,27.920294 319.466095,26.926111 316.049896,25.829084 
	C316.286530,23.575243 316.711243,20.807026 316.831787,18.025629 
	C316.953796,15.209886 317.252991,11.718774 313.395935,11.381955 
	C309.712250,11.060274 307.039917,12.698752 306.008820,16.981678 
	C305.095001,20.777473 302.999664,24.288820 301.425903,27.925734 
	C300.812225,27.707445 300.198517,27.489157 299.584839,27.270868 
	C300.237030,24.707083 300.690063,22.070690 301.591705,19.597860 
	C302.722137,16.497667 304.611786,13.631656 305.419434,10.471774 
	C305.938934,8.439320 305.845764,4.832697 304.691803,4.132545 
	C303.084442,3.157291 299.848999,3.566794 297.998688,4.607473 
	C295.485504,6.020998 293.824127,8.866794 291.439575,10.608287 
	C286.425629,14.270071 281.279877,17.784927 275.934204,20.928122 
	C274.966522,21.497112 271.538055,20.241201 271.382721,19.422359 
	C270.716064,15.908227 269.232483,14.000266 265.506714,13.991200 
	C264.967712,13.989889 264.458710,12.987143 263.887848,12.504551 
	C262.550629,11.374137 261.187775,9.430389 259.828766,9.424854 
	C258.649353,9.420050 257.380157,11.558741 256.295288,12.869803 
	C254.616531,14.898567 252.674347,18.986834 251.523697,18.759584 
	C247.655594,17.995657 244.071899,15.742572 240.436935,13.942998 
	C240.153595,13.802725 240.246780,12.757059 240.283325,12.139195 
	C240.503006,8.424994 240.757294,4.712840 241.000000,1.000000 
z"/>
<path fill="#000000" opacity="1.000000" stroke="none" 
	d="
M63.000000,513.000000 
	C42.344738,513.000000 21.689478,513.000000 1.017108,513.000000 
	C1.017108,342.438934 1.017108,171.877853 1.017108,1.000000 
	C73.687256,1.000000 146.374969,1.000000 219.783752,1.332844 
	C218.988632,7.008403 217.472443,12.351118 216.218414,16.770086 
	C210.719070,18.672054 205.467499,20.488329 200.246155,22.294151 
	C199.887985,18.592541 199.555542,14.505883 199.076538,10.436477 
	C198.760635,7.752855 198.286469,4.528566 194.550888,5.563167 
	C191.353348,6.448750 190.919113,9.086658 191.783829,12.395864 
	C193.389679,18.541399 187.347855,30.767519 180.655945,34.420200 
	C178.850189,31.214479 176.304108,28.189131 175.409332,24.735909 
	C174.233231,20.196877 174.575180,15.285619 173.815567,10.607290 
	C173.506577,8.704384 172.375366,5.864915 170.992981,5.427438 
	C168.046402,4.494958 164.733810,5.382998 164.102509,9.171206 
	C163.541641,12.536558 163.406006,16.038429 163.605545,19.449455 
	C163.904449,24.559536 164.758453,29.635515 165.142624,34.743584 
	C165.221649,35.794197 164.260620,37.869301 163.799942,37.863297 
	C160.370316,37.818604 160.492020,40.498268 159.903366,42.551411 
	C158.584015,47.152908 156.180359,50.822140 150.664291,53.656929 
	C151.951385,50.552658 152.638657,48.417873 153.687286,46.478477 
	C155.234451,43.617027 155.366501,40.503338 152.674637,39.013744 
	C151.409027,38.313396 147.793839,39.866188 146.590927,41.432713 
	C143.442764,45.532490 140.673859,50.028400 138.440659,54.695107 
	C136.379440,59.002419 133.673325,59.880238 129.943817,57.535263 
	C126.277603,55.230083 120.748566,55.571110 119.661598,49.453781 
	C118.615463,43.566158 116.886055,43.017963 110.351479,45.068569 
	C109.183189,52.110821 112.851212,57.851303 115.745087,63.726101 
	C118.712761,69.750732 119.705406,75.912117 118.080513,82.630783 
	C116.140152,80.089790 114.803017,77.367302 113.852005,74.516045 
	C112.876083,71.590096 111.234100,68.768356 108.148979,69.615540 
	C106.406357,70.094055 104.702148,73.201454 104.244591,75.389069 
	C103.028534,81.203178 104.815216,86.464401 108.647102,91.048347 
	C112.357063,95.486443 112.986458,100.400574 111.236542,105.939003 
	C110.390511,108.616669 109.423035,108.766113 106.710533,108.755081 
	C100.182495,108.728516 93.557030,109.232460 87.169304,110.512611 
	C84.853058,110.976807 82.651497,114.002823 81.308983,116.375580 
	C80.757332,117.350571 82.661201,121.163269 83.362816,121.139755 
	C85.934525,121.053566 88.878685,120.473755 90.931129,119.019325 
	C94.710762,116.340950 98.043739,116.202423 101.085258,119.495552 
	C102.865189,121.422737 103.948975,123.992874 105.791306,127.000961 
	C96.544342,126.382874 97.690689,131.730637 99.436119,137.576035 
	C97.125328,136.850662 95.912376,136.152374 94.703339,136.159073 
	C92.456322,136.171524 90.211571,136.595123 87.965881,136.847534 
	C88.954361,138.836258 89.444786,141.487549 91.031578,142.680313 
	C94.709419,145.444855 98.984825,147.399414 102.874504,149.905060 
	C104.282021,150.811752 105.280457,152.353470 106.465561,153.605423 
	C101.659836,153.478546 97.593224,152.937500 93.671173,151.866898 
	C85.714424,149.694962 79.386192,152.400574 73.875877,157.919678 
	C70.073952,161.727676 68.722824,167.477722 71.112328,169.331650 
	C73.529686,171.207199 77.579109,169.178680 81.190842,164.282974 
	C85.937401,157.848969 94.529556,158.346970 98.795143,165.112747 
	C100.339081,167.561646 102.357071,169.792953 104.482368,171.776871 
	C108.713646,175.726654 109.359970,179.565750 106.150169,184.563797 
	C104.746971,186.748764 103.216927,188.852249 101.966629,190.669800 
	C98.961319,189.685303 96.505615,188.486099 93.942894,188.178528 
	C92.201546,187.969543 89.080360,188.608475 88.761848,189.582764 
	C88.227104,191.218491 88.877769,193.854156 90.007385,195.311005 
	C93.991035,200.448669 98.390068,205.264267 102.628304,210.198227 
	C97.129303,215.344360 96.170036,215.362381 89.897934,211.266281 
	C87.854683,209.931915 85.629837,208.320572 83.349205,208.062363 
	C81.112175,207.809128 77.536736,208.399185 76.615326,209.893478 
	C74.932846,212.621994 76.175903,215.562912 79.603447,217.095291 
	C87.069771,220.433334 93.995041,225.738846 103.002220,223.128677 
	C103.390785,223.016083 103.937584,223.369293 104.387352,223.560425 
	C109.119690,225.571106 113.847275,227.592957 117.493774,229.149658 
	C116.159035,230.849091 114.677620,232.735275 113.081802,234.767120 
	C112.508537,233.935577 112.068558,232.585526 111.178162,232.144165 
	C108.846848,230.988541 106.318855,230.229721 103.869263,229.312729 
	C103.306725,231.766479 101.583122,234.762466 102.423149,236.561172 
	C104.175217,240.312744 107.282166,243.431534 110.152573,247.234436 
	C104.762840,247.234436 99.113358,247.234436 93.380486,247.234436 
	C92.142029,260.519867 102.608147,255.640884 108.979652,257.300201 
	C106.669411,261.269104 104.411896,264.709045 102.667267,268.391998 
	C102.088043,269.614777 102.357872,271.786926 103.133453,272.904877 
	C103.620399,273.606750 106.112663,273.713684 107.106361,273.106873 
	C109.383224,271.716370 111.615509,269.987000 113.290474,267.927307 
	C118.059517,262.062775 121.934021,261.470581 125.879417,267.389404 
	C129.123383,272.255920 132.176147,276.951416 137.472824,279.791321 
	C138.230484,280.197540 138.638000,281.256805 138.900574,281.605804 
	C136.773666,284.036743 133.907166,285.880188 133.295792,288.294617 
	C131.781372,294.275513 134.966522,298.324432 141.154205,299.855835 
	C148.209229,301.601929 154.323441,304.731873 156.438232,308.531647 
	C152.881729,313.531525 149.588425,317.364990 147.314423,321.729553 
	C146.332855,323.613556 146.500397,327.594208 147.828751,328.869324 
	C150.525024,331.457428 152.804214,329.452271 154.071198,326.291229 
	C154.658325,324.826385 155.674240,323.533386 156.138214,322.759094 
	C159.486359,322.759094 162.478882,323.497955 164.866135,322.609833 
	C170.341049,320.573120 176.912735,319.357178 177.741364,311.649231 
	C177.778946,311.299652 178.470673,311.020386 179.179398,310.865784 
	C188.170822,320.140015 198.170166,327.337128 209.933762,332.522064 
	C210.048462,337.326935 210.109619,341.674011 210.094879,346.482544 
	C210.018982,352.541901 210.018982,358.139832 210.018982,364.026794 
	C205.327164,364.026794 201.194397,364.026794 196.785614,363.725647 
	C192.000214,364.242432 187.490814,365.060364 182.539597,365.919403 
	C172.875778,368.223602 163.545242,370.121490 154.453613,372.823273 
	C133.420837,379.073578 115.544525,390.686951 100.272087,406.294678 
	C90.212753,416.574860 80.777603,427.514862 74.738075,440.669800 
	C70.747559,449.361755 66.636902,458.507050 65.376320,467.827576 
	C63.362183,482.719788 63.672440,497.926331 63.000000,513.000000 
z"/>
<path fill="#C63307" opacity="1.000000" stroke="none" 
	d="
M178.857727,310.708374 
	C178.470673,311.020386 177.778946,311.299652 177.741364,311.649231 
	C176.912735,319.357178 170.341049,320.573120 164.866135,322.609833 
	C162.478882,323.497955 159.486359,322.759094 156.138214,322.759094 
	C155.674240,323.533386 154.658325,324.826385 154.071198,326.291229 
	C152.804214,329.452271 150.525024,331.457428 147.828751,328.869324 
	C146.500397,327.594208 146.332855,323.613556 147.314423,321.729553 
	C149.588425,317.364990 152.881729,313.531525 156.438232,308.531647 
	C154.323441,304.731873 148.209229,301.601929 141.154205,299.855835 
	C134.966522,298.324432 131.781372,294.275513 133.295792,288.294617 
	C133.907166,285.880188 136.773666,284.036743 138.900574,281.605804 
	C138.638000,281.256805 138.230484,280.197540 137.472824,279.791321 
	C132.176147,276.951416 129.123383,272.255920 125.879417,267.389404 
	C121.934021,261.470581 118.059517,262.062775 113.290474,267.927307 
	C111.615509,269.987000 109.383224,271.716370 107.106361,273.106873 
	C106.112663,273.713684 103.620399,273.606750 103.133453,272.904877 
	C102.357872,271.786926 102.088043,269.614777 102.667267,268.391998 
	C104.411896,264.709045 106.669411,261.269104 108.979652,257.300201 
	C102.608147,255.640884 92.142029,260.519867 93.380486,247.234436 
	C99.113358,247.234436 104.762840,247.234436 110.152573,247.234436 
	C107.282166,243.431534 104.175217,240.312744 102.423149,236.561172 
	C101.583122,234.762466 103.306725,231.766479 103.869263,229.312729 
	C106.318855,230.229721 108.846848,230.988541 111.178162,232.144165 
	C112.068558,232.585526 112.508537,233.935577 113.081802,234.767120 
	C114.677620,232.735275 116.159035,230.849091 117.493774,229.149658 
	C113.847275,227.592957 109.119690,225.571106 104.387352,223.560425 
	C103.937584,223.369293 103.390785,223.016083 103.002220,223.128677 
	C93.995041,225.738846 87.069771,220.433334 79.603447,217.095291 
	C76.175903,215.562912 74.932846,212.621994 76.615326,209.893478 
	C77.536736,208.399185 81.112175,207.809128 83.349205,208.062363 
	C85.629837,208.320572 87.854683,209.931915 89.897934,211.266281 
	C96.170036,215.362381 97.129303,215.344360 102.628304,210.198227 
	C98.390068,205.264267 93.991035,200.448669 90.007385,195.311005 
	C88.877769,193.854156 88.227104,191.218491 88.761848,189.582764 
	C89.080360,188.608475 92.201546,187.969543 93.942894,188.178528 
	C96.505615,188.486099 98.961319,189.685303 101.966629,190.669800 
	C103.216927,188.852249 104.746971,186.748764 106.150169,184.563797 
	C109.359970,179.565750 108.713646,175.726654 104.482368,171.776871 
	C102.357071,169.792953 100.339081,167.561646 98.795143,165.112747 
	C94.529556,158.346970 85.937401,157.848969 81.190842,164.282974 
	C77.579109,169.178680 73.529686,171.207199 71.112328,169.331650 
	C68.722824,167.477722 70.073952,161.727676 73.875877,157.919678 
	C79.386192,152.400574 85.714424,149.694962 93.671173,151.866898 
	C97.593224,152.937500 101.659836,153.478546 106.465561,153.605423 
	C105.280457,152.353470 104.282021,150.811752 102.874504,149.905060 
	C98.984825,147.399414 94.709419,145.444855 91.031578,142.680313 
	C89.444786,141.487549 88.954361,138.836258 87.965881,136.847534 
	C90.211571,136.595123 92.456322,136.171524 94.703339,136.159073 
	C95.912376,136.152374 97.125328,136.850662 99.436119,137.576035 
	C97.690689,131.730637 96.544342,126.382874 105.791306,127.000961 
	C103.948975,123.992874 102.865189,121.422737 101.085258,119.495552 
	C98.043739,116.202423 94.710762,116.340950 90.931129,119.019325 
	C88.878685,120.473755 85.934525,121.053566 83.362816,121.139755 
	C82.661201,121.163269 80.757332,117.350571 81.308983,116.375580 
	C82.651497,114.002823 84.853058,110.976807 87.169304,110.512611 
	C93.557030,109.232460 100.182495,108.728516 106.710533,108.755081 
	C109.423035,108.766113 110.390511,108.616669 111.236542,105.939003 
	C112.986458,100.400574 112.357063,95.486443 108.647102,91.048347 
	C104.815216,86.464401 103.028534,81.203178 104.244591,75.389069 
	C104.702148,73.201454 106.406357,70.094055 108.148979,69.615540 
	C111.234100,68.768356 112.876083,71.590096 113.852005,74.516045 
	C114.803017,77.367302 116.140152,80.089790 118.080513,82.630783 
	C119.705406,75.912117 118.712761,69.750732 115.745087,63.726101 
	C112.851212,57.851303 109.183189,52.110821 110.351479,45.068569 
	C116.886055,43.017963 118.615463,43.566158 119.661598,49.453781 
	C120.748566,55.571110 126.277603,55.230083 129.943817,57.535263 
	C133.673325,59.880238 136.379440,59.002419 138.440659,54.695107 
	C140.673859,50.028400 143.442764,45.532490 146.590927,41.432713 
	C147.793839,39.866188 151.409027,38.313396 152.674637,39.013744 
	C155.366501,40.503338 155.234451,43.617027 153.687286,46.478477 
	C152.638657,48.417873 151.951385,50.552658 150.664291,53.656929 
	C156.180359,50.822140 158.584015,47.152908 159.903366,42.551411 
	C160.492020,40.498268 160.370316,37.818604 163.799942,37.863297 
	C164.260620,37.869301 165.221649,35.794197 165.142624,34.743584 
	C164.758453,29.635515 163.904449,24.559536 163.605545,19.449455 
	C163.406006,16.038429 163.541641,12.536558 164.102509,9.171206 
	C164.733810,5.382998 168.046402,4.494958 170.992981,5.427438 
	C172.375366,5.864915 173.506577,8.704384 173.815567,10.607290 
	C174.575180,15.285619 174.233231,20.196877 175.409332,24.735909 
	C176.304108,28.189131 178.850189,31.214479 180.655945,34.420200 
	C187.347855,30.767519 193.389679,18.541399 191.783829,12.395864 
	C190.919113,9.086658 191.353348,6.448750 194.550888,5.563167 
	C198.286469,4.528566 198.760635,7.752855 199.076538,10.436477 
	C199.555542,14.505883 199.887985,18.592541 200.246155,22.294151 
	C205.467499,20.488329 210.719070,18.672054 216.218414,16.770086 
	C217.472443,12.351118 218.988632,7.008403 220.252411,1.332844 
	C223.030594,1.000000 226.061188,1.000000 229.507767,1.400149 
	C228.878250,4.664417 227.774307,7.508924 226.804367,10.398408 
	C225.911423,13.058484 225.162537,15.766920 224.350189,18.454050 
	C224.876526,18.665968 225.402863,18.877886 225.929199,19.089804 
	C226.536011,18.638000 227.402008,18.317995 227.709213,17.713848 
	C230.528000,12.170630 233.249878,6.578135 236.000000,1.000002 
	C237.388885,1.000000 238.777786,1.000000 240.583344,1.000000 
	C240.757294,4.712840 240.503006,8.424994 240.283325,12.139195 
	C240.246780,12.757059 240.153595,13.802725 240.436935,13.942998 
	C244.071899,15.742572 247.655594,17.995657 251.523697,18.759584 
	C252.674347,18.986834 254.616531,14.898567 256.295288,12.869803 
	C257.380157,11.558741 258.649353,9.420050 259.828766,9.424854 
	C261.187775,9.430389 262.550629,11.374137 263.887848,12.504551 
	C264.458710,12.987143 264.967712,13.989889 265.506714,13.991200 
	C269.232483,14.000266 270.716064,15.908227 271.382721,19.422359 
	C271.538055,20.241201 274.966522,21.497112 275.934204,20.928122 
	C281.279877,17.784927 286.425629,14.270071 291.439575,10.608287 
	C293.824127,8.866794 295.485504,6.020998 297.998688,4.607473 
	C299.848999,3.566794 303.084442,3.157291 304.691803,4.132545 
	C305.845764,4.832697 305.938934,8.439320 305.419434,10.471774 
	C304.611786,13.631656 302.722137,16.497667 301.591705,19.597860 
	C300.690063,22.070690 300.237030,24.707083 299.584839,27.270868 
	C300.198517,27.489157 300.812225,27.707445 301.425903,27.925734 
	C302.999664,24.288820 305.095001,20.777473 306.008820,16.981678 
	C307.039917,12.698752 309.712250,11.060274 313.395935,11.381955 
	C317.252991,11.718774 316.953796,15.209886 316.831787,18.025629 
	C316.711243,20.807026 316.286530,23.575243 316.049896,25.829084 
	C319.466095,26.926111 322.562012,27.920294 326.072693,29.047665 
	C326.072693,26.501791 325.971649,23.591110 326.095673,20.690052 
	C326.296387,15.994569 329.017029,13.900781 334.129181,14.147130 
	C338.952118,14.379541 339.287537,17.407997 338.643890,21.419258 
	C332.359344,21.628254 333.593079,26.236824 334.101227,30.062468 
	C334.576355,33.639759 335.711792,37.129345 336.922913,42.187302 
	C338.486572,39.673058 339.640533,37.999153 340.607880,36.223598 
	C342.491852,32.765732 342.966095,27.232265 348.547546,28.405849 
	C354.008270,29.554064 352.845734,34.826962 352.812622,38.763493 
	C352.778809,42.784241 352.002899,46.798744 351.563568,50.712067 
	C355.047028,49.933849 358.143463,49.242096 360.926941,48.620251 
	C362.955048,47.436424 365.163086,45.124928 366.896515,45.438366 
	C368.465729,45.722092 370.486847,48.821045 370.585175,50.765827 
	C370.763763,54.297279 369.672180,57.894958 369.092316,61.462002 
	C368.715271,63.781403 367.944458,66.516586 371.343719,66.953110 
	C374.406281,67.346397 376.815308,66.260162 377.230469,62.497700 
	C377.626221,58.910660 378.230164,55.310642 379.166382,51.830345 
	C379.940979,48.950939 381.785339,46.353153 385.237122,47.466114 
	C388.408722,48.488724 388.162628,51.424408 387.692383,54.222847 
	C386.959534,58.584167 386.391632,62.973202 385.765839,67.268227 
	C391.587158,69.006187 393.904999,73.672195 392.629791,80.228249 
	C391.792358,84.533722 390.993011,88.846603 390.052795,93.809845 
	C391.679504,93.448524 392.557159,93.038445 393.392822,93.111069 
	C395.360931,93.282112 397.967682,93.038933 399.078583,94.174217 
	C400.171997,95.291626 400.525665,98.261116 399.826538,99.786758 
	C397.943054,103.896851 395.325226,107.670410 392.976532,111.615021 
	C397.307037,113.677971 400.456055,112.341400 401.706879,107.639992 
	C402.631104,104.166138 402.778839,100.461807 403.041656,96.843391 
	C403.256561,93.885559 403.492340,90.636398 407.114258,90.543121 
	C411.012329,90.442741 412.541443,93.469421 411.936035,96.984558 
	C410.801636,103.571632 409.273773,110.090950 407.872986,116.813873 
	C413.254639,119.023071 413.957306,120.693535 411.231537,127.018951 
	C409.529480,130.968781 407.518372,134.791321 405.963440,138.794296 
	C405.602356,139.723862 406.534729,141.155853 406.871918,142.356659 
	C407.425598,142.249207 407.979279,142.141769 408.532959,142.034332 
	C409.241455,139.377472 409.788879,136.663681 410.702545,134.079376 
	C411.666626,131.352463 413.472595,128.044296 416.507690,129.487473 
	C418.327271,130.352692 419.586639,134.322052 419.486542,136.831985 
	C419.347900,140.309143 417.694031,143.725861 416.495697,147.830322 
	C418.550201,147.112396 419.904114,146.188644 421.142456,146.323776 
	C422.600250,146.482849 424.418396,147.232773 425.208374,148.345520 
	C425.804718,149.185471 425.536499,151.458862 424.775238,152.295914 
	C422.026855,155.317841 418.882812,157.976883 415.937042,160.823547 
	C414.217133,162.485596 412.590179,164.243805 411.247772,165.623367 
	C414.334351,167.384705 417.339081,168.406952 419.213043,170.460922 
	C420.149597,171.487442 419.020660,174.398407 418.928772,175.369766 
	C420.628876,178.137939 423.477173,180.646652 423.166229,182.669891 
	C422.245880,188.658661 416.462952,186.295441 412.498505,187.331223 
	C414.817566,193.294022 420.180817,194.688828 425.101044,196.909851 
	C427.029327,197.780304 428.360016,199.974564 429.962830,201.565918 
	C428.252655,203.012573 426.753662,205.165543 424.786804,205.753525 
	C421.102325,206.854980 417.146820,207.050003 412.442139,207.750336 
	C415.386780,211.917786 417.621033,215.508194 420.281403,218.748764 
	C424.734406,224.172943 425.736389,230.411530 424.677124,236.973663 
	C424.390106,238.751785 422.191650,240.221344 420.870514,241.832520 
	C419.626953,240.153351 417.628479,238.614731 417.284637,236.768051 
	C416.339630,231.692200 416.193542,226.410141 410.550812,223.904831 
	C409.295593,223.347519 407.908234,223.087784 406.581726,222.691040 
	C406.284668,223.033112 405.987579,223.375168 405.690521,223.717239 
	C407.388824,226.331924 409.232452,228.866043 410.740631,231.586121 
	C412.003754,233.864273 413.427216,236.292999 413.727844,238.782089 
	C413.932190,240.473877 412.749451,243.257950 411.387024,243.928757 
	C410.246948,244.490097 407.914551,242.761627 406.180573,241.904556 
	C405.662750,241.648621 405.382355,240.912277 404.389282,239.594894 
	C402.903015,243.410751 401.104980,246.568817 400.620148,249.917038 
	C400.394226,251.477310 402.396454,253.780212 403.943359,255.092728 
	C407.536743,258.141602 409.280396,261.819519 408.810150,266.430084 
	C408.694305,267.565704 407.910309,269.174744 407.015228,269.539368 
	C406.091614,269.915588 404.365448,269.377350 403.512878,268.637299 
	C402.046844,267.364746 401.113708,265.495941 399.718506,264.118927 
	C398.421295,262.838593 396.964630,261.298004 395.316864,260.863922 
	C385.443237,258.262756 382.385010,261.383698 384.559906,271.522797 
	C385.593262,276.340118 385.147552,277.499939 381.332825,279.578369 
	C382.034668,280.118622 382.996094,280.483063 383.260803,281.131805 
	C384.110474,283.213806 384.702545,285.400970 385.393982,287.547546 
	C383.288361,287.654053 380.614288,288.639130 379.178558,287.710236 
	C373.839996,284.256256 371.213654,286.732880 367.877197,290.734619 
	C364.964233,294.228516 361.870453,297.571655 358.627960,301.239990 
	C361.802368,302.617432 365.595856,304.047729 369.158386,305.917969 
	C370.540405,306.643463 371.400299,308.363525 372.498077,309.630493 
	C370.793732,310.684326 369.017517,312.722382 367.398682,312.604187 
	C362.857483,312.272705 358.381226,311.051819 352.544556,309.923798 
	C353.349396,312.734802 353.896210,315.055939 354.681183,317.293549 
	C355.980438,320.997192 357.938507,324.560913 358.585602,328.359619 
	C358.864899,329.999481 356.941772,333.195007 355.362518,333.724243 
	C352.115509,334.812408 351.396759,331.930511 351.122314,329.235626 
	C350.990936,327.945343 351.013306,326.246307 350.232483,325.477081 
	C343.676270,319.018433 345.475616,310.364471 343.790894,301.793457 
	C344.751923,299.170654 345.787994,297.277740 347.033478,295.534454 
	C356.597992,282.147278 362.583862,267.317291 364.631500,251.005783 
	C365.006836,248.016113 365.808685,246.347977 368.627045,244.988220 
	C376.710449,241.088257 380.741669,234.257874 381.005096,225.387589 
	C381.232513,217.729691 381.316742,210.047668 380.978119,202.397827 
	C380.548737,192.696838 375.726807,185.855515 366.637817,182.006470 
	C365.381470,181.474426 364.033447,179.704849 363.836243,178.347214 
	C361.457245,161.968353 357.556519,146.094070 350.118622,131.159012 
	C344.508759,119.894516 336.226807,113.815422 323.186615,113.263420 
	C279.060822,111.395546 234.967178,111.294304 190.841003,113.264420 
	C178.072021,113.834518 169.509232,119.470650 164.154114,130.705307 
	C163.796158,131.456314 163.392563,132.185455 163.026474,132.932755 
	C155.995895,147.283859 152.447128,162.609528 150.172455,178.315842 
	C149.982666,179.626343 148.969360,181.475815 147.882797,181.895935 
	C137.539719,185.895386 133.012253,193.617279 132.946945,204.355667 
	C132.908447,210.687195 132.992844,217.019699 132.927551,223.350800 
	C132.823242,233.465881 136.998276,240.909073 146.122360,245.629654 
	C147.530869,246.358398 148.916336,248.403015 149.121338,249.992691 
	C151.546432,268.797699 158.769623,285.501190 170.559570,300.286377 
	C173.328171,303.758331 176.091812,307.234283 178.857727,310.708374 
M106.766899,156.140518 
	C107.116180,156.025970 107.465462,155.911407 107.814743,155.796844 
	C107.384567,155.686157 106.954384,155.575485 106.766899,156.140518 
z"/>
<path fill="#262E33" opacity="1.000000" stroke="none" 
	d="
M308.000000,513.000000 
	C274.312439,513.000000 240.624878,513.000000 206.476074,512.568604 
	C203.552383,497.929932 201.168045,483.708496 198.610458,469.518311 
	C193.972672,443.786469 192.235703,417.848969 193.084976,391.742493 
	C193.244934,386.825195 194.250244,381.935364 195.057999,377.321350 
	C199.322495,386.061249 205.990295,391.936829 214.141312,396.173615 
	C234.946167,406.987671 256.906708,409.052002 279.620667,404.205688 
	C295.295319,400.861328 309.397278,394.652649 319.281006,381.305847 
	C320.008698,385.721130 320.958435,389.827515 320.927490,393.926514 
	C320.836029,406.052307 320.989716,418.233521 319.879150,430.285370 
	C318.282410,447.613800 315.833069,464.872406 313.401001,482.111908 
	C311.941681,492.456055 309.822571,502.707092 308.000000,513.000000 
z"/>
<path fill="#3B4C5A" opacity="1.000000" stroke="none" 
	d="
M63.468658,513.000000 
	C63.672440,497.926331 63.362183,482.719788 65.376320,467.827576 
	C66.636902,458.507050 70.747559,449.361755 74.738075,440.669800 
	C80.777603,427.514862 90.212753,416.574860 100.272087,406.294678 
	C115.544525,390.686951 133.420837,379.073578 154.453613,372.823273 
	C163.545242,370.121490 172.875778,368.223602 182.526855,366.294617 
	C182.193985,368.261322 181.623154,370.020355 180.640137,371.506775 
	C172.115356,384.397217 163.510437,397.234619 154.941681,410.096008 
	C148.267105,420.114349 148.255432,420.142334 157.318283,427.905396 
	C159.397797,429.686676 160.220154,431.194946 158.034851,433.663300 
	C155.734573,436.261505 154.210449,439.563477 151.837601,442.076874 
	C148.348740,445.772461 148.960205,449.393707 150.740814,453.511932 
	C155.424118,464.343689 160.016907,475.216675 164.477280,486.142029 
	C168.111221,495.043091 171.501617,504.043579 175.000000,513.000000 
	C137.979111,513.000000 100.958214,513.000000 63.468658,513.000000 
z"/>
<path fill="#3A4C5A" opacity="1.000000" stroke="none" 
	d="
M331.016479,366.154755 
	C341.535797,365.785675 350.996002,370.047089 360.536682,373.430267 
	C369.695587,376.677979 378.620392,380.752441 387.274017,385.192596 
	C392.029724,387.632721 395.944550,391.673584 400.358826,394.824127 
	C415.960754,405.959259 427.016327,420.972137 436.944214,437.725525 
	C437.438995,438.526550 437.698303,438.768860 437.957581,439.011169 
	C437.957581,439.011169 438.046631,439.363159 437.984619,439.951874 
	C440.238861,445.344513 442.555115,450.148407 444.871338,454.952332 
	C451.544189,473.492310 451.248383,492.779968 450.999359,512.531372 
	C413.979095,513.000000 376.958221,513.000000 339.489563,512.620239 
	C341.392761,506.232819 343.603271,500.165466 346.128204,494.231903 
	C349.749847,485.721039 353.600861,477.307739 357.734619,468.727905 
	C369.167786,467.575806 380.220245,466.548553 392.642181,465.394043 
	C387.880890,461.875763 384.413300,459.343689 380.978821,456.767517 
	C377.153931,453.898529 373.363892,453.991272 369.482758,456.680481 
	C366.360199,458.844147 363.165802,460.904205 360.016785,462.625671 
	C360.679993,460.183716 360.973267,457.914948 362.045074,456.107941 
	C365.503571,450.277008 365.132263,445.411835 360.748871,439.823273 
	C354.132996,431.388397 354.516388,431.020905 361.961304,423.580994 
	C364.134094,421.409668 365.617615,419.665863 363.341522,416.393677 
	C354.972992,404.362915 346.773376,392.210724 338.727325,379.961639 
	C335.840729,375.567108 333.568909,370.768768 331.016479,366.154755 
z"/>
<path fill="#2F4351" opacity="1.000000" stroke="none" 
	d="
M175.468658,513.000000 
	C171.501617,504.043579 168.111221,495.043091 164.477280,486.142029 
	C160.016907,475.216675 155.424118,464.343689 150.740814,453.511932 
	C148.960205,449.393707 148.348740,445.772461 151.837601,442.076874 
	C154.210449,439.563477 155.734573,436.261505 158.034851,433.663300 
	C160.220154,431.194946 159.397797,429.686676 157.318283,427.905396 
	C148.255432,420.142334 148.267105,420.114349 154.941681,410.096008 
	C163.510437,397.234619 172.115356,384.397217 180.640137,371.506775 
	C181.623154,370.020355 182.193985,368.261322 182.968674,366.253479 
	C187.490814,365.060364 192.000214,364.242432 196.713928,364.116821 
	C196.233994,368.883759 195.549744,372.958313 194.865479,377.032867 
	C194.250244,381.935364 193.244934,386.825195 193.084976,391.742493 
	C192.235703,417.848969 193.972672,443.786469 198.610458,469.518311 
	C201.168045,483.708496 203.552383,497.929932 206.007416,512.568604 
	C195.979111,513.000000 185.958206,513.000000 175.468658,513.000000 
z"/>
<path fill="#2F4351" opacity="1.000000" stroke="none" 
	d="
M357.353943,468.852814 
	C353.600861,477.307739 349.749847,485.721039 346.128204,494.231903 
	C343.603271,500.165466 341.392761,506.232819 339.020905,512.620239 
	C328.979095,513.000000 318.958221,513.000000 308.468658,513.000000 
	C309.822571,502.707092 311.941681,492.456055 313.401001,482.111908 
	C315.833069,464.872406 318.282410,447.613800 319.879150,430.285370 
	C320.989716,418.233521 320.836029,406.052307 320.927490,393.926514 
	C320.958435,389.827515 320.008698,385.721130 319.316833,380.936401 
	C318.397461,374.843842 317.668365,369.433014 316.939270,364.022156 
	C321.741974,362.043274 326.193085,362.945374 330.719269,365.911194 
	C333.568909,370.768768 335.840729,375.567108 338.727325,379.961639 
	C346.773376,392.210724 354.972992,404.362915 363.341522,416.393677 
	C365.617615,419.665863 364.134094,421.409668 361.961304,423.580994 
	C354.516388,431.020905 354.132996,431.388397 360.748871,439.823273 
	C365.132263,445.411835 365.503571,450.277008 362.045074,456.107941 
	C360.973267,457.914948 360.679993,460.183716 359.839478,462.926941 
	C358.883789,465.359497 358.118866,467.106171 357.353943,468.852814 
z"/>
<path fill="#000000" opacity="1.000000" stroke="none" 
	d="
M235.571533,1.000002 
	C233.249878,6.578135 230.528000,12.170630 227.709213,17.713848 
	C227.402008,18.317995 226.536011,18.638000 225.929199,19.089804 
	C225.402863,18.877886 224.876526,18.665968 224.350189,18.454050 
	C225.162537,15.766920 225.911423,13.058484 226.804367,10.398408 
	C227.774307,7.508924 228.878250,4.664417 229.961884,1.400149 
	C231.714355,1.000000 233.428711,1.000000 235.571533,1.000002 
z"/>
<path fill="#FEDAB3" opacity="1.000000" stroke="none" 
	d="
M179.179398,310.865784 
	C176.091812,307.234283 173.328171,303.758331 170.559570,300.286377 
	C158.769623,285.501190 151.546432,268.797699 149.121338,249.992691 
	C148.916336,248.403015 147.530869,246.358398 146.122360,245.629654 
	C136.998276,240.909073 132.823242,233.465881 132.927551,223.350800 
	C132.992844,217.019699 132.908447,210.687195 132.946945,204.355667 
	C133.012253,193.617279 137.539719,185.895386 147.882797,181.895935 
	C148.969360,181.475815 149.982666,179.626343 150.172455,178.315842 
	C152.447128,162.609528 155.995895,147.283859 163.026474,132.932755 
	C163.392563,132.185455 163.796158,131.456314 164.154114,130.705307 
	C169.509232,119.470650 178.072021,113.834518 190.841003,113.264420 
	C234.967178,111.294304 279.060822,111.395546 323.186615,113.263420 
	C336.226807,113.815422 344.508759,119.894516 350.118622,131.159012 
	C357.556519,146.094070 361.457245,161.968353 363.836243,178.347214 
	C364.033447,179.704849 365.381470,181.474426 366.637817,182.006470 
	C375.726807,185.855515 380.548737,192.696838 380.978119,202.397827 
	C381.316742,210.047668 381.232513,217.729691 381.005096,225.387589 
	C380.741669,234.257874 376.710449,241.088257 368.627045,244.988220 
	C365.808685,246.347977 365.006836,248.016113 364.631500,251.005783 
	C362.583862,267.317291 356.597992,282.147278 347.033478,295.534454 
	C345.787994,297.277740 344.751923,299.170654 343.672516,301.351898 
	C337.683929,307.709717 332.115601,314.313782 325.462128,319.535004 
	C319.187988,324.458557 311.771301,327.926178 304.092957,332.046173 
	C299.992096,333.062592 296.626251,333.979858 293.323669,335.085968 
	C274.158386,341.504883 254.634613,343.032196 234.851242,338.833405 
	C226.428101,337.045654 218.198029,334.348297 209.880219,332.064301 
	C198.170166,327.337128 188.170822,320.140015 179.179398,310.865784 
M227.138535,269.936005 
	C220.722748,269.997223 219.635178,271.204834 220.995850,277.206726 
	C222.700317,284.725189 226.603317,290.911713 233.001175,296.238831 
	C247.239822,307.889313 268.935303,307.545135 281.836517,295.127625 
	C287.819641,290.015137 291.695648,283.675720 293.235870,275.905518 
	C294.104584,271.523041 292.489075,269.560699 287.078003,269.982361 
	C267.370148,270.000702 247.662277,270.019043 227.138535,269.936005 
M213.811005,163.676834 
	C200.043259,160.256943 187.345139,162.423279 176.045944,171.191345 
	C173.058487,173.509598 170.602295,176.392105 171.343674,180.749695 
	C190.328323,173.636932 209.851089,172.262146 230.595612,173.076492 
	C225.706024,167.335541 220.325897,165.296783 213.811005,163.676834 
M325.548431,163.848145 
	C310.326416,159.641663 290.001556,164.379456 286.542633,173.205521 
	C306.376404,171.962921 325.717743,173.864746 345.038818,180.267822 
	C343.791016,177.152252 342.603149,173.615387 340.144989,171.778137 
	C335.958557,168.649185 330.973541,166.588654 325.548431,163.848145 
M240.688065,238.958832 
	C238.627029,239.102173 236.565994,239.245499 234.471436,239.391159 
	C235.835281,249.101486 245.383072,253.777649 261.123413,253.014343 
	C271.041901,252.533356 278.944214,246.775787 279.351105,238.958618 
	C266.763641,238.958618 254.202820,238.958618 240.688065,238.958832 
M217.588882,202.404007 
	C216.939484,201.256195 216.444839,199.979553 215.614670,198.982224 
	C211.360397,193.871552 203.103256,193.511032 198.279373,198.146759 
	C193.944916,202.312149 193.873611,208.945831 198.116714,213.280167 
	C202.899292,218.165573 211.238831,218.272629 215.232010,212.781906 
	C217.056625,210.273026 217.031189,206.418716 217.588882,202.404007 
M304.246887,195.280182 
	C296.798157,198.410080 293.937683,204.416473 296.986359,210.525818 
	C299.974640,216.513977 307.789398,218.651321 313.636719,215.079636 
	C318.001434,212.413589 320.025574,207.277802 318.532074,202.658783 
	C316.791473,197.275482 312.295563,194.754608 304.246887,195.280182 
z"/>
<path fill="#FEDAB3" opacity="1.000000" stroke="none" 
	d="
M316.479553,364.011475 
	C317.668365,369.433014 318.397461,374.843842 319.090759,380.624146 
	C309.397278,394.652649 295.295319,400.861328 279.620667,404.205688 
	C256.906708,409.052002 234.946167,406.987671 214.141312,396.173615 
	C205.990295,391.936829 199.322495,386.061249 195.057999,377.321350 
	C195.549744,372.958313 196.233994,368.883759 196.989929,364.417999 
	C201.194397,364.026794 205.327164,364.026794 210.018982,364.026794 
	C210.018982,358.139832 210.018982,352.541901 210.446045,346.553467 
	C211.493332,346.398468 212.116180,346.627228 212.733414,346.870300 
	C228.193069,352.958740 244.247559,356.407013 260.840271,355.763885 
	C275.673004,355.189056 290.016693,351.556091 303.829224,346.020966 
	C303.829224,351.820160 303.829224,357.619324 303.829224,364.000793 
	C308.156189,364.000793 312.088013,364.000793 316.479553,364.011475 
z"/>
<path fill="#E6C6A2" opacity="1.000000" stroke="none" 
	d="
M303.905670,345.560913 
	C290.016693,351.556091 275.673004,355.189056 260.840271,355.763885 
	C244.247559,356.407013 228.193069,352.958740 212.733414,346.870300 
	C212.116180,346.627228 211.493332,346.398468 210.521942,346.092041 
	C210.109619,341.674011 210.048462,337.326935 209.933762,332.522064 
	C218.198029,334.348297 226.428101,337.045654 234.851242,338.833405 
	C254.634613,343.032196 274.158386,341.504883 293.323669,335.085968 
	C296.626251,333.979858 299.992096,333.062592 303.724243,332.061188 
	C304.073883,336.409821 304.028015,340.755371 303.905670,345.560913 
z"/>
<path fill="#6C7274" opacity="1.000000" stroke="none" 
	d="
M444.916077,454.580017 
	C442.555115,450.148407 440.238861,445.344513 437.974365,440.133118 
	C440.337677,444.552979 442.649231,449.380310 444.916077,454.580017 
z"/>
<path fill="#6C7274" opacity="1.000000" stroke="none" 
	d="
M437.937073,438.724487 
	C437.698303,438.768860 437.438995,438.526550 437.097809,438.021790 
	C437.316132,437.985443 437.616333,438.211609 437.937073,438.724487 
z"/>
<path fill="#000000" opacity="1.000000" stroke="none" 
	d="
M106.645554,155.802658 
	C106.954384,155.575485 107.384567,155.686157 107.814743,155.796844 
	C107.465462,155.911407 107.116180,156.025970 106.645554,155.802658 
z"/>
<path fill="#DDDEDE" opacity="1.000000" stroke="none" 
	d="
M357.734619,468.727905 
	C358.118866,467.106171 358.883789,465.359497 359.825989,463.311523 
	C363.165802,460.904205 366.360199,458.844147 369.482758,456.680481 
	C373.363892,453.991272 377.153931,453.898529 380.978821,456.767517 
	C384.413300,459.343689 387.880890,461.875763 392.642181,465.394043 
	C380.220245,466.548553 369.167786,467.575806 357.734619,468.727905 
z"/>
<path fill="#504338" opacity="1.000000" stroke="none" 
	d="
M288.015381,270.032104 
	C292.489075,269.560699 294.104584,271.523041 293.235870,275.905518 
	C291.695648,283.675720 287.819641,290.015137 281.266174,295.035492 
	C274.506500,290.125641 267.676697,288.957550 260.089630,290.905304 
	C258.008118,291.439636 255.566284,291.292114 253.440491,290.802765 
	C245.654922,289.010651 238.679550,290.152649 232.679810,295.696075 
	C226.603317,290.911713 222.700317,284.725189 220.995850,277.206726 
	C219.635178,271.204834 220.722748,269.997223 227.573486,270.353088 
	C229.951843,276.794739 232.641266,278.947845 238.728699,278.976349 
	C251.640503,279.036804 264.553131,279.049957 277.464722,278.970062 
	C283.621094,278.931976 286.572296,276.308014 288.015381,270.032104 
z"/>
<path fill="#6D5E4D" opacity="1.000000" stroke="none" 
	d="
M214.214661,163.762802 
	C220.325897,165.296783 225.706024,167.335541 230.595612,173.076492 
	C209.851089,172.262146 190.328323,173.636932 171.343674,180.749695 
	C170.602295,176.392105 173.058487,173.509598 176.045944,171.191345 
	C187.345139,162.423279 200.043259,160.256943 214.214661,163.762802 
z"/>
<path fill="#6D5E4D" opacity="1.000000" stroke="none" 
	d="
M325.936249,163.963684 
	C330.973541,166.588654 335.958557,168.649185 340.144989,171.778137 
	C342.603149,173.615387 343.791016,177.152252 345.038818,180.267822 
	C325.717743,173.864746 306.376404,171.962921 286.542633,173.205521 
	C290.001556,164.379456 310.326416,159.641663 325.936249,163.963684 
z"/>
<path fill="#FA526E" opacity="1.000000" stroke="none" 
	d="
M232.840485,295.967468 
	C238.679550,290.152649 245.654922,289.010651 253.440491,290.802765 
	C255.566284,291.292114 258.008118,291.439636 260.089630,290.905304 
	C267.676697,288.957550 274.506500,290.125641 280.969421,295.208466 
	C268.935303,307.545135 247.239822,307.889313 232.840485,295.967468 
z"/>
<path fill="#D7B998" opacity="1.000000" stroke="none" 
	d="
M241.165039,238.958725 
	C254.202820,238.958618 266.763641,238.958618 279.351105,238.958618 
	C278.944214,246.775787 271.041901,252.533356 261.123413,253.014343 
	C245.383072,253.777649 235.835281,249.101486 234.471436,239.391159 
	C236.565994,239.245499 238.627029,239.102173 241.165039,238.958725 
z"/>
<path fill="#FDFDFD" opacity="1.000000" stroke="none" 
	d="
M287.546692,270.007233 
	C286.572296,276.308014 283.621094,278.931976 277.464722,278.970062 
	C264.553131,279.049957 251.640503,279.036804 238.728699,278.976349 
	C232.641266,278.947845 229.951843,276.794739 227.981445,270.403809 
	C247.662277,270.019043 267.370148,270.000702 287.546692,270.007233 
z"/>
<path fill="#6A5C4B" opacity="1.000000" stroke="none" 
	d="
M217.716858,202.789307 
	C217.031189,206.418716 217.056625,210.273026 215.232010,212.781906 
	C211.238831,218.272629 202.899292,218.165573 198.116714,213.280167 
	C193.873611,208.945831 193.944916,202.312149 198.279373,198.146759 
	C203.103256,193.511032 211.360397,193.871552 215.614670,198.982224 
	C216.444839,199.979553 216.939484,201.256195 217.716858,202.789307 
z"/>
<path fill="#6A5C4B" opacity="1.000000" stroke="none" 
	d="
M304.644531,195.187561 
	C312.295563,194.754608 316.791473,197.275482 318.532074,202.658783 
	C320.025574,207.277802 318.001434,212.413589 313.636719,215.079636 
	C307.789398,218.651321 299.974640,216.513977 296.986359,210.525818 
	C293.937683,204.416473 296.798157,198.410080 304.644531,195.187561 
z"/>
</svg>